<?xml version="1.0" encoding="UTF-8"?><svg xmlns="http://www.w3.org/2000/svg" xmlns:xlink="http://www.w3.org/1999/xlink" width="810" zoomAndPan="magnify" viewBox="0 0 810 809.999993" height="809.999993" preserveAspectRatio="xMidYMid meet" version="1.0"><defs><clipPath id="clip-0"><path d="M 81 127.382812 L 729.75 127.382812 L 729.75 728.882812 L 81 728.882812 Z M 81 127.382812 " clip-rule="nonzero"/></clipPath><clipPath id="clip-1"><path d="M 81 266 L 729.75 266 L 729.75 313 L 81 313 Z M 81 266 " clip-rule="nonzero"/></clipPath></defs><path fill="rgb(10.198975%, 13.328552%, 21.958923%)" d="M 281.984375 566.941406 C 280.464844 566.941406 278.960938 566.792969 277.46875 566.496094 C 275.980469 566.199219 274.53125 565.757812 273.128906 565.175781 C 271.726562 564.597656 270.394531 563.882812 269.128906 563.039062 C 267.867188 562.195312 266.699219 561.234375 265.625 560.160156 L 203.917969 498.484375 C 203.378906 497.949219 202.871094 497.386719 202.390625 496.800781 C 201.910156 496.214844 201.457031 495.609375 201.035156 494.976562 C 200.613281 494.347656 200.226562 493.699219 199.867188 493.03125 C 199.507812 492.359375 199.183594 491.675781 198.894531 490.976562 C 198.605469 490.277344 198.347656 489.5625 198.128906 488.835938 C 197.910156 488.113281 197.722656 487.378906 197.578125 486.632812 C 197.429688 485.890625 197.316406 485.140625 197.242188 484.386719 C 197.167969 483.632812 197.132812 482.875 197.132812 482.117188 C 197.132812 481.359375 197.167969 480.601562 197.242188 479.847656 C 197.316406 479.09375 197.429688 478.34375 197.578125 477.601562 C 197.722656 476.855469 197.910156 476.121094 198.128906 475.398438 C 198.347656 474.671875 198.605469 473.957031 198.894531 473.257812 C 199.183594 472.558594 199.507812 471.875 199.867188 471.203125 C 200.226562 470.535156 200.613281 469.886719 201.035156 469.257812 C 201.457031 468.625 201.910156 468.019531 202.390625 467.433594 C 202.871094 466.847656 203.378906 466.285156 203.917969 465.75 L 265.625 404.050781 C 266.160156 403.511719 266.722656 403.003906 267.308594 402.523438 C 267.894531 402.042969 268.503906 401.589844 269.132812 401.167969 C 269.761719 400.746094 270.414062 400.359375 271.082031 400 C 271.75 399.644531 272.433594 399.320312 273.132812 399.03125 C 273.835938 398.738281 274.546875 398.484375 275.273438 398.265625 C 276 398.042969 276.734375 397.859375 277.476562 397.710938 C 278.222656 397.5625 278.96875 397.453125 279.726562 397.378906 C 280.480469 397.304688 281.234375 397.265625 281.996094 397.265625 C 282.753906 397.265625 283.507812 397.304688 284.265625 397.378906 C 285.019531 397.453125 285.765625 397.5625 286.511719 397.710938 C 287.253906 397.859375 287.988281 398.042969 288.714844 398.265625 C 289.441406 398.484375 290.152344 398.738281 290.855469 399.03125 C 291.554688 399.320312 292.238281 399.644531 292.90625 400 C 293.578125 400.359375 294.226562 400.75 294.855469 401.167969 C 295.488281 401.589844 296.09375 402.042969 296.679688 402.523438 C 297.265625 403.003906 297.828125 403.511719 298.363281 404.050781 C 298.898438 404.585938 299.410156 405.148438 299.890625 405.734375 C 300.371094 406.320312 300.820312 406.929688 301.242188 407.558594 C 301.664062 408.1875 302.050781 408.839844 302.410156 409.507812 C 302.765625 410.175781 303.089844 410.863281 303.378906 411.5625 C 303.667969 412.261719 303.925781 412.976562 304.144531 413.703125 C 304.363281 414.425781 304.546875 415.160156 304.695312 415.90625 C 304.84375 416.648438 304.953125 417.398438 305.027344 418.152344 C 305.101562 418.90625 305.136719 419.664062 305.136719 420.421875 C 305.136719 421.179688 305.097656 421.9375 305.023438 422.691406 C 304.949219 423.445312 304.835938 424.195312 304.6875 424.9375 C 304.539062 425.679688 304.355469 426.414062 304.132812 427.140625 C 303.914062 427.867188 303.65625 428.578125 303.367188 429.28125 C 303.078125 429.980469 302.75 430.664062 302.394531 431.332031 C 302.035156 432 301.644531 432.648438 301.222656 433.28125 C 300.800781 433.910156 300.351562 434.515625 299.867188 435.101562 C 299.386719 435.6875 298.878906 436.25 298.339844 436.785156 L 252.992188 482.105469 L 298.339844 527.449219 C 299.144531 528.253906 299.886719 529.113281 300.5625 530.027344 C 301.242188 530.941406 301.847656 531.898438 302.382812 532.902344 C 302.921875 533.90625 303.378906 534.941406 303.761719 536.011719 C 304.148438 537.085938 304.449219 538.179688 304.671875 539.292969 C 304.894531 540.410156 305.03125 541.535156 305.085938 542.671875 C 305.144531 543.808594 305.117188 544.941406 305.003906 546.074219 C 304.890625 547.207031 304.699219 548.324219 304.421875 549.425781 C 304.144531 550.53125 303.789062 551.605469 303.355469 552.65625 C 302.917969 553.710938 302.410156 554.722656 301.824219 555.699219 C 301.238281 556.675781 300.585938 557.601562 299.863281 558.480469 C 299.140625 559.359375 298.359375 560.183594 297.515625 560.945312 C 296.671875 561.710938 295.777344 562.410156 294.832031 563.042969 C 293.886719 563.671875 292.898438 564.234375 291.871094 564.71875 C 290.84375 565.207031 289.785156 565.613281 288.695312 565.945312 C 287.609375 566.273438 286.5 566.523438 285.375 566.691406 C 284.25 566.855469 283.121094 566.941406 281.984375 566.941406 Z M 281.984375 566.941406 " fill-opacity="1" fill-rule="nonzero"/><path fill="rgb(10.198975%, 13.328552%, 21.958923%)" d="M 528.765625 566.941406 C 527.628906 566.941406 526.496094 566.855469 525.371094 566.6875 C 524.246094 566.523438 523.140625 566.273438 522.050781 565.941406 C 520.964844 565.613281 519.90625 565.203125 518.875 564.71875 C 517.847656 564.230469 516.859375 563.671875 515.914062 563.039062 C 514.96875 562.40625 514.074219 561.710938 513.230469 560.945312 C 512.390625 560.183594 511.605469 559.359375 510.886719 558.480469 C 510.164062 557.601562 509.511719 556.671875 508.925781 555.699219 C 508.339844 554.722656 507.832031 553.710938 507.394531 552.65625 C 506.960938 551.605469 506.605469 550.53125 506.328125 549.425781 C 506.050781 548.324219 505.859375 547.207031 505.746094 546.074219 C 505.632812 544.941406 505.605469 543.808594 505.664062 542.671875 C 505.71875 541.535156 505.855469 540.410156 506.078125 539.292969 C 506.300781 538.179688 506.601562 537.085938 506.988281 536.011719 C 507.371094 534.941406 507.828125 533.90625 508.367188 532.902344 C 508.902344 531.898438 509.507812 530.941406 510.1875 530.027344 C 510.863281 529.113281 511.605469 528.253906 512.410156 527.449219 L 557.757812 482.105469 L 512.410156 436.785156 C 511.871094 436.25 511.363281 435.6875 510.882812 435.101562 C 510.402344 434.515625 509.949219 433.910156 509.53125 433.28125 C 509.109375 432.648438 508.71875 432 508.363281 431.332031 C 508.003906 430.664062 507.679688 429.980469 507.390625 429.28125 C 507.097656 428.578125 506.84375 427.867188 506.625 427.140625 C 506.402344 426.417969 506.21875 425.683594 506.070312 424.9375 C 505.921875 424.195312 505.8125 423.449219 505.738281 422.691406 C 505.664062 421.9375 505.625 421.183594 505.625 420.425781 C 505.625 419.667969 505.660156 418.910156 505.734375 418.15625 C 505.808594 417.402344 505.921875 416.652344 506.066406 415.910156 C 506.214844 415.167969 506.398438 414.433594 506.617188 413.707031 C 506.839844 412.984375 507.09375 412.269531 507.382812 411.570312 C 507.671875 410.871094 507.996094 410.183594 508.355469 409.515625 C 508.710938 408.847656 509.097656 408.199219 509.519531 407.570312 C 509.941406 406.9375 510.390625 406.328125 510.871094 405.742188 C 511.351562 405.15625 511.863281 404.597656 512.398438 404.0625 C 512.933594 403.523438 513.492188 403.015625 514.078125 402.535156 C 514.664062 402.054688 515.273438 401.601562 515.902344 401.183594 C 516.53125 400.761719 517.183594 400.371094 517.851562 400.015625 C 518.519531 399.65625 519.203125 399.332031 519.902344 399.042969 C 520.601562 398.753906 521.316406 398.496094 522.042969 398.277344 C 522.765625 398.054688 523.5 397.871094 524.242188 397.722656 C 524.988281 397.574219 525.734375 397.464844 526.492188 397.390625 C 527.246094 397.316406 528 397.277344 528.757812 397.277344 C 529.515625 397.277344 530.273438 397.316406 531.027344 397.386719 C 531.78125 397.460938 532.53125 397.574219 533.273438 397.722656 C 534.015625 397.867188 534.75 398.050781 535.476562 398.273438 C 536.203125 398.492188 536.914062 398.746094 537.617188 399.035156 C 538.316406 399.324219 539 399.648438 539.667969 400.007812 C 540.335938 400.363281 540.988281 400.753906 541.617188 401.171875 C 542.246094 401.59375 542.855469 402.042969 543.441406 402.523438 C 544.027344 403.003906 544.589844 403.515625 545.125 404.050781 L 606.832031 465.75 C 607.371094 466.285156 607.878906 466.847656 608.359375 467.433594 C 608.839844 468.019531 609.292969 468.625 609.714844 469.257812 C 610.136719 469.886719 610.523438 470.535156 610.882812 471.203125 C 611.242188 471.875 611.566406 472.558594 611.855469 473.257812 C 612.144531 473.957031 612.402344 474.671875 612.621094 475.398438 C 612.839844 476.121094 613.023438 476.855469 613.171875 477.601562 C 613.320312 478.34375 613.433594 479.09375 613.507812 479.847656 C 613.582031 480.601562 613.617188 481.359375 613.617188 482.117188 C 613.617188 482.875 613.582031 483.632812 613.507812 484.386719 C 613.433594 485.140625 613.320312 485.890625 613.171875 486.632812 C 613.023438 487.378906 612.839844 488.113281 612.621094 488.835938 C 612.402344 489.5625 612.144531 490.277344 611.855469 490.976562 C 611.566406 491.675781 611.242188 492.359375 610.882812 493.03125 C 610.523438 493.699219 610.136719 494.347656 609.714844 494.976562 C 609.292969 495.609375 608.839844 496.214844 608.359375 496.800781 C 607.878906 497.386719 607.371094 497.949219 606.832031 498.484375 L 545.125 560.160156 C 544.050781 561.234375 542.882812 562.195312 541.617188 563.039062 C 540.355469 563.882812 539.019531 564.597656 537.617188 565.179688 C 536.214844 565.761719 534.769531 566.199219 533.277344 566.496094 C 531.789062 566.792969 530.285156 566.941406 528.765625 566.941406 Z M 528.765625 566.941406 " fill-opacity="1" fill-rule="nonzero"/><path fill="rgb(10.198975%, 13.328552%, 21.958923%)" d="M 374.507812 566.941406 C 374.019531 566.941406 373.53125 566.925781 373.039062 566.894531 C 372.550781 566.863281 372.0625 566.8125 371.578125 566.753906 C 371.089844 566.691406 370.605469 566.613281 370.125 566.519531 C 369.644531 566.425781 369.164062 566.316406 368.691406 566.195312 C 368.21875 566.070312 367.746094 565.929688 367.28125 565.777344 C 366.816406 565.625 366.355469 565.457031 365.898438 565.273438 C 365.445312 565.089844 364.996094 564.894531 364.554688 564.683594 C 364.113281 564.472656 363.675781 564.246094 363.246094 564.007812 C 362.820312 563.769531 362.398438 563.515625 361.988281 563.25 C 361.574219 562.984375 361.171875 562.707031 360.777344 562.417969 C 360.382812 562.125 360 561.820312 359.625 561.503906 C 359.25 561.191406 358.882812 560.863281 358.527344 560.523438 C 358.175781 560.183594 357.832031 559.835938 357.5 559.476562 C 357.167969 559.113281 356.847656 558.742188 356.539062 558.363281 C 356.230469 557.980469 355.933594 557.589844 355.652344 557.191406 C 355.367188 556.789062 355.097656 556.382812 354.839844 555.964844 C 354.582031 555.546875 354.335938 555.125 354.105469 554.691406 C 353.875 554.257812 353.660156 553.820312 353.457031 553.371094 C 353.253906 552.925781 353.0625 552.472656 352.890625 552.015625 C 352.714844 551.558594 352.558594 551.09375 352.414062 550.625 C 352.269531 550.15625 352.136719 549.683594 352.023438 549.207031 C 351.910156 548.730469 351.808594 548.25 351.726562 547.769531 C 351.640625 547.285156 351.574219 546.800781 351.519531 546.3125 C 351.46875 545.824219 351.429688 545.335938 351.40625 544.847656 C 351.386719 544.355469 351.378906 543.867188 351.386719 543.375 C 351.398438 542.886719 351.421875 542.398438 351.460938 541.910156 C 351.503906 541.421875 351.558594 540.933594 351.628906 540.449219 C 351.699219 539.964844 351.789062 539.480469 351.890625 539 C 351.992188 538.523438 352.109375 538.046875 352.238281 537.574219 C 352.371094 537.101562 352.519531 536.632812 352.679688 536.171875 C 352.84375 535.707031 353.019531 535.25 353.210938 534.800781 C 353.402344 534.347656 353.605469 533.902344 353.824219 533.464844 L 415.507812 410.0625 C 415.851562 409.386719 416.222656 408.726562 416.628906 408.085938 C 417.035156 407.445312 417.472656 406.824219 417.9375 406.226562 C 418.40625 405.625 418.898438 405.050781 419.421875 404.503906 C 419.945312 403.953125 420.496094 403.429688 421.070312 402.933594 C 421.644531 402.4375 422.242188 401.96875 422.863281 401.53125 C 423.484375 401.097656 424.125 400.691406 424.785156 400.316406 C 425.445312 399.941406 426.121094 399.601562 426.816406 399.292969 C 427.507812 398.984375 428.214844 398.710938 428.9375 398.472656 C 429.65625 398.234375 430.386719 398.03125 431.128906 397.863281 C 431.871094 397.699219 432.617188 397.570312 433.371094 397.476562 C 434.121094 397.382812 434.878906 397.324219 435.636719 397.308594 C 436.398438 397.289062 437.15625 397.304688 437.910156 397.363281 C 438.667969 397.417969 439.421875 397.507812 440.167969 397.640625 C 440.917969 397.769531 441.65625 397.933594 442.390625 398.136719 C 443.121094 398.339844 443.839844 398.574219 444.550781 398.847656 C 445.257812 399.121094 445.949219 399.429688 446.628906 399.769531 C 447.308594 400.109375 447.96875 400.484375 448.609375 400.890625 C 449.25 401.296875 449.871094 401.730469 450.46875 402.199219 C 451.066406 402.664062 451.640625 403.160156 452.191406 403.683594 C 452.742188 404.207031 453.265625 404.753906 453.761719 405.328125 C 454.257812 405.902344 454.722656 406.5 455.160156 407.121094 C 455.597656 407.742188 456.003906 408.382812 456.378906 409.042969 C 456.753906 409.703125 457.09375 410.378906 457.402344 411.074219 C 457.710938 411.769531 457.984375 412.476562 458.222656 413.195312 C 458.460938 413.914062 458.664062 414.648438 458.828125 415.386719 C 458.996094 416.128906 459.125 416.875 459.21875 417.628906 C 459.3125 418.382812 459.371094 419.136719 459.386719 419.894531 C 459.40625 420.65625 459.390625 421.414062 459.332031 422.167969 C 459.277344 422.925781 459.183594 423.679688 459.054688 424.425781 C 458.925781 425.175781 458.761719 425.914062 458.558594 426.644531 C 458.355469 427.378906 458.117188 428.097656 457.847656 428.804688 C 457.574219 429.515625 457.265625 430.207031 456.925781 430.886719 L 395.242188 554.261719 C 394.757812 555.214844 394.210938 556.128906 393.601562 557.007812 C 392.992188 557.882812 392.328125 558.714844 391.601562 559.496094 C 390.878906 560.28125 390.105469 561.011719 389.277344 561.691406 C 388.453125 562.367188 387.585938 562.984375 386.675781 563.542969 C 385.761719 564.097656 384.816406 564.589844 383.839844 565.015625 C 382.859375 565.441406 381.855469 565.800781 380.828125 566.085938 C 379.800781 566.375 378.757812 566.589844 377.699219 566.730469 C 376.640625 566.875 375.578125 566.945312 374.507812 566.941406 Z M 374.507812 566.941406 " fill-opacity="1" fill-rule="nonzero"/><g clip-path="url(#clip-0)"><path fill="rgb(10.198975%, 13.328552%, 21.958923%)" d="M 706.160156 728.882812 L 104.589844 728.882812 C 103.832031 728.882812 103.074219 728.84375 102.320312 728.769531 C 101.566406 728.695312 100.816406 728.585938 100.074219 728.4375 C 99.332031 728.289062 98.597656 728.105469 97.871094 727.886719 C 97.148438 727.667969 96.433594 727.410156 95.734375 727.121094 C 95.035156 726.832031 94.347656 726.507812 93.679688 726.152344 C 93.011719 725.792969 92.363281 725.40625 91.734375 724.984375 C 91.105469 724.5625 90.496094 724.113281 89.910156 723.632812 C 89.324219 723.152344 88.761719 722.640625 88.226562 722.105469 C 87.691406 721.570312 87.183594 721.011719 86.703125 720.425781 C 86.222656 719.839844 85.769531 719.230469 85.351562 718.601562 C 84.929688 717.96875 84.539062 717.320312 84.183594 716.652344 C 83.824219 715.984375 83.5 715.300781 83.210938 714.601562 C 82.921875 713.902344 82.667969 713.1875 82.445312 712.464844 C 82.226562 711.738281 82.042969 711.003906 81.894531 710.261719 C 81.746094 709.519531 81.636719 708.769531 81.5625 708.015625 C 81.488281 707.261719 81.449219 706.503906 81.449219 705.746094 L 81.449219 150.515625 C 81.449219 149.757812 81.488281 149.003906 81.5625 148.25 C 81.636719 147.496094 81.746094 146.746094 81.894531 146.003906 C 82.042969 145.261719 82.226562 144.527344 82.445312 143.800781 C 82.667969 143.078125 82.921875 142.363281 83.210938 141.664062 C 83.5 140.964844 83.824219 140.28125 84.183594 139.613281 C 84.539062 138.945312 84.929688 138.292969 85.351562 137.664062 C 85.769531 137.035156 86.222656 136.425781 86.703125 135.839844 C 87.183594 135.253906 87.691406 134.695312 88.226562 134.160156 C 88.761719 133.621094 89.324219 133.113281 89.910156 132.632812 C 90.496094 132.152344 91.105469 131.703125 91.734375 131.28125 C 92.363281 130.859375 93.011719 130.472656 93.679688 130.113281 C 94.347656 129.757812 95.035156 129.433594 95.734375 129.144531 C 96.433594 128.855469 97.148438 128.597656 97.871094 128.378906 C 98.597656 128.160156 99.332031 127.976562 100.074219 127.828125 C 100.816406 127.679688 101.566406 127.566406 102.320312 127.492188 C 103.074219 127.417969 103.832031 127.382812 104.589844 127.382812 L 706.160156 127.382812 C 706.917969 127.382812 707.675781 127.417969 708.429688 127.492188 C 709.183594 127.566406 709.933594 127.679688 710.675781 127.828125 C 711.417969 127.976562 712.152344 128.160156 712.878906 128.378906 C 713.601562 128.597656 714.316406 128.855469 715.015625 129.144531 C 715.714844 129.433594 716.402344 129.757812 717.070312 130.113281 C 717.738281 130.472656 718.386719 130.859375 719.015625 131.28125 C 719.644531 131.703125 720.253906 132.152344 720.839844 132.632812 C 721.425781 133.113281 721.988281 133.621094 722.523438 134.160156 C 723.058594 134.695312 723.566406 135.253906 724.046875 135.839844 C 724.527344 136.425781 724.980469 137.035156 725.398438 137.664062 C 725.820312 138.292969 726.210938 138.945312 726.566406 139.613281 C 726.925781 140.28125 727.25 140.964844 727.539062 141.664062 C 727.828125 142.363281 728.082031 143.078125 728.304688 143.800781 C 728.523438 144.527344 728.707031 145.261719 728.855469 146.003906 C 729.003906 146.746094 729.113281 147.496094 729.1875 148.25 C 729.261719 149.003906 729.300781 149.757812 729.300781 150.515625 L 729.300781 705.746094 C 729.300781 706.503906 729.261719 707.261719 729.1875 708.015625 C 729.113281 708.769531 729.003906 709.519531 728.855469 710.261719 C 728.707031 711.003906 728.523438 711.738281 728.304688 712.464844 C 728.082031 713.1875 727.828125 713.902344 727.539062 714.601562 C 727.25 715.300781 726.925781 715.984375 726.566406 716.652344 C 726.210938 717.320312 725.820312 717.96875 725.398438 718.601562 C 724.980469 719.230469 724.527344 719.839844 724.046875 720.425781 C 723.566406 721.011719 723.058594 721.570312 722.523438 722.105469 C 721.988281 722.640625 721.425781 723.152344 720.839844 723.632812 C 720.253906 724.113281 719.644531 724.5625 719.015625 724.984375 C 718.386719 725.40625 717.738281 725.792969 717.070312 726.152344 C 716.402344 726.507812 715.714844 726.832031 715.015625 727.121094 C 714.316406 727.410156 713.601562 727.667969 712.878906 727.886719 C 712.152344 728.105469 711.417969 728.289062 710.675781 728.4375 C 709.933594 728.585938 709.183594 728.695312 708.429688 728.769531 C 707.675781 728.84375 706.917969 728.882812 706.160156 728.882812 Z M 127.726562 682.613281 L 683.023438 682.613281 L 683.023438 173.652344 L 127.726562 173.652344 Z M 127.726562 682.613281 " fill-opacity="1" fill-rule="nonzero"/></g><g clip-path="url(#clip-1)"><path fill="rgb(10.198975%, 13.328552%, 21.958923%)" d="M 706.160156 312.460938 L 104.589844 312.460938 C 103.832031 312.460938 103.074219 312.421875 102.320312 312.347656 C 101.566406 312.273438 100.816406 312.164062 100.074219 312.015625 C 99.332031 311.867188 98.597656 311.683594 97.871094 311.464844 C 97.148438 311.242188 96.433594 310.988281 95.734375 310.699219 C 95.035156 310.410156 94.347656 310.085938 93.679688 309.726562 C 93.011719 309.371094 92.363281 308.980469 91.734375 308.5625 C 91.105469 308.140625 90.496094 307.6875 89.910156 307.207031 C 89.324219 306.726562 88.761719 306.21875 88.226562 305.683594 C 87.691406 305.148438 87.183594 304.585938 86.703125 304 C 86.222656 303.414062 85.769531 302.808594 85.351562 302.179688 C 84.929688 301.546875 84.539062 300.898438 84.183594 300.230469 C 83.824219 299.5625 83.5 298.878906 83.210938 298.179688 C 82.921875 297.476562 82.667969 296.765625 82.445312 296.039062 C 82.226562 295.316406 82.042969 294.582031 81.894531 293.839844 C 81.746094 293.09375 81.636719 292.347656 81.5625 291.59375 C 81.488281 290.839844 81.449219 290.082031 81.449219 289.324219 C 81.449219 288.566406 81.488281 287.8125 81.5625 287.058594 C 81.636719 286.304688 81.746094 285.554688 81.894531 284.8125 C 82.042969 284.070312 82.226562 283.335938 82.445312 282.609375 C 82.667969 281.882812 82.921875 281.171875 83.210938 280.472656 C 83.5 279.773438 83.824219 279.085938 84.183594 278.417969 C 84.539062 277.75 84.929688 277.101562 85.351562 276.472656 C 85.769531 275.84375 86.222656 275.234375 86.703125 274.648438 C 87.183594 274.0625 87.691406 273.503906 88.226562 272.964844 C 88.761719 272.429688 89.324219 271.921875 89.910156 271.441406 C 90.496094 270.960938 91.105469 270.511719 91.734375 270.089844 C 92.363281 269.667969 93.011719 269.277344 93.679688 268.921875 C 94.347656 268.566406 95.035156 268.242188 95.734375 267.953125 C 96.433594 267.660156 97.148438 267.40625 97.871094 267.1875 C 98.597656 266.964844 99.332031 266.78125 100.074219 266.632812 C 100.816406 266.488281 101.566406 266.375 102.320312 266.300781 C 103.074219 266.226562 103.832031 266.191406 104.589844 266.191406 L 706.160156 266.191406 C 706.917969 266.191406 707.675781 266.226562 708.429688 266.300781 C 709.183594 266.375 709.933594 266.488281 710.675781 266.632812 C 711.417969 266.78125 712.152344 266.964844 712.878906 267.1875 C 713.601562 267.40625 714.316406 267.660156 715.015625 267.953125 C 715.714844 268.242188 716.402344 268.566406 717.070312 268.921875 C 717.738281 269.277344 718.386719 269.667969 719.015625 270.089844 C 719.644531 270.511719 720.253906 270.960938 720.839844 271.441406 C 721.425781 271.921875 721.988281 272.429688 722.523438 272.964844 C 723.058594 273.503906 723.566406 274.0625 724.046875 274.648438 C 724.527344 275.234375 724.980469 275.84375 725.398438 276.472656 C 725.820312 277.101562 726.210938 277.75 726.566406 278.417969 C 726.925781 279.085938 727.25 279.773438 727.539062 280.472656 C 727.828125 281.171875 728.082031 281.882812 728.304688 282.609375 C 728.523438 283.335938 728.707031 284.070312 728.855469 284.8125 C 729.003906 285.554688 729.113281 286.304688 729.1875 287.058594 C 729.261719 287.8125 729.300781 288.566406 729.300781 289.324219 C 729.300781 290.082031 729.261719 290.839844 729.1875 291.59375 C 729.113281 292.347656 729.003906 293.09375 728.855469 293.839844 C 728.707031 294.582031 728.523438 295.316406 728.304688 296.039062 C 728.082031 296.765625 727.828125 297.476562 727.539062 298.179688 C 727.25 298.878906 726.925781 299.5625 726.566406 300.230469 C 726.210938 300.898438 725.820312 301.546875 725.398438 302.179688 C 724.980469 302.808594 724.527344 303.414062 724.046875 304 C 723.566406 304.585938 723.058594 305.148438 722.523438 305.683594 C 721.988281 306.21875 721.425781 306.726562 720.839844 307.207031 C 720.253906 307.6875 719.644531 308.140625 719.015625 308.558594 C 718.386719 308.980469 717.738281 309.371094 717.070312 309.726562 C 716.402344 310.085938 715.714844 310.410156 715.015625 310.699219 C 714.316406 310.988281 713.601562 311.242188 712.878906 311.464844 C 712.152344 311.683594 711.417969 311.867188 710.675781 312.015625 C 709.933594 312.164062 709.183594 312.273438 708.429688 312.347656 C 707.675781 312.421875 706.917969 312.460938 706.160156 312.460938 Z M 706.160156 312.460938 " fill-opacity="1" fill-rule="nonzero"/></g><path fill="rgb(10.198975%, 13.328552%, 21.958923%)" d="M 497.925781 243.054688 C 496.371094 243.007812 494.828125 242.851562 493.296875 242.59375 C 491.839844 242.339844 490.449219 241.875 489.132812 241.203125 C 487.644531 240.691406 486.25 240 484.945312 239.121094 L 481.496094 236.347656 C 480.964844 235.804688 480.460938 235.238281 479.984375 234.648438 C 479.507812 234.058594 479.0625 233.445312 478.644531 232.8125 C 478.226562 232.175781 477.84375 231.523438 477.488281 230.851562 C 477.136719 230.183594 476.816406 229.496094 476.527344 228.792969 C 476.242188 228.089844 475.988281 227.375 475.773438 226.648438 C 475.554688 225.921875 475.371094 225.1875 475.226562 224.441406 C 475.078125 223.695312 474.96875 222.945312 474.894531 222.191406 C 474.824219 221.4375 474.785156 220.679688 474.785156 219.921875 C 474.785156 219.164062 474.824219 218.40625 474.894531 217.648438 C 474.96875 216.894531 475.078125 216.144531 475.226562 215.402344 C 475.371094 214.65625 475.554688 213.921875 475.773438 213.191406 C 475.988281 212.464844 476.242188 211.75 476.527344 211.050781 C 476.816406 210.347656 477.136719 209.660156 477.488281 208.988281 C 477.84375 208.316406 478.226562 207.664062 478.644531 207.03125 C 479.0625 206.398438 479.507812 205.785156 479.984375 205.195312 C 480.460938 204.601562 480.964844 204.039062 481.496094 203.496094 C 482.3125 202.707031 483.179688 201.984375 484.101562 201.320312 C 485.023438 200.660156 485.988281 200.066406 486.992188 199.546875 C 488 199.023438 489.039062 198.574219 490.109375 198.203125 C 491.179688 197.832031 492.273438 197.535156 493.386719 197.324219 C 494.5 197.109375 495.621094 196.976562 496.753906 196.921875 C 497.886719 196.871094 499.019531 196.898438 500.148438 197.011719 C 501.277344 197.121094 502.390625 197.3125 503.492188 197.585938 C 504.589844 197.859375 505.667969 198.210938 506.71875 198.636719 C 508.148438 199.105469 509.457031 199.800781 510.648438 200.71875 C 512.015625 201.644531 513.195312 202.570312 514.351562 203.496094 C 514.882812 204.039062 515.386719 204.601562 515.863281 205.195312 C 516.339844 205.785156 516.789062 206.398438 517.203125 207.03125 C 517.621094 207.664062 518.007812 208.316406 518.359375 208.988281 C 518.714844 209.660156 519.035156 210.347656 519.320312 211.050781 C 519.609375 211.75 519.859375 212.464844 520.078125 213.191406 C 520.296875 213.921875 520.476562 214.65625 520.625 215.402344 C 520.769531 216.144531 520.878906 216.894531 520.953125 217.648438 C 521.027344 218.40625 521.0625 219.164062 521.0625 219.921875 C 521.0625 220.679688 521.027344 221.4375 520.953125 222.191406 C 520.878906 222.945312 520.769531 223.695312 520.625 224.441406 C 520.476562 225.1875 520.296875 225.921875 520.078125 226.648438 C 519.859375 227.375 519.609375 228.089844 519.320312 228.792969 C 519.035156 229.496094 518.714844 230.183594 518.359375 230.851562 C 518.007812 231.523438 517.621094 232.175781 517.203125 232.8125 C 516.789062 233.445312 516.339844 234.058594 515.863281 234.648438 C 515.386719 235.238281 514.882812 235.804688 514.351562 236.347656 C 512.082031 238.398438 509.535156 240.015625 506.71875 241.203125 C 503.910156 242.402344 500.976562 243.019531 497.925781 243.054688 Z M 497.925781 243.054688 " fill-opacity="1" fill-rule="nonzero"/><path fill="rgb(10.198975%, 13.328552%, 21.958923%)" d="M 567.335938 243.054688 C 565.785156 243.007812 564.242188 242.851562 562.710938 242.59375 C 561.25 242.339844 559.863281 241.875 558.542969 241.203125 C 557.058594 240.691406 555.664062 240 554.355469 239.121094 C 553.15625 238.261719 552.007812 237.335938 550.910156 236.347656 C 548.746094 234.148438 547.125 231.605469 546.050781 228.710938 C 545.441406 227.328125 544.980469 225.894531 544.667969 224.414062 C 544.355469 222.933594 544.199219 221.433594 544.199219 219.921875 C 544.199219 218.40625 544.355469 216.910156 544.667969 215.429688 C 544.980469 213.949219 545.441406 212.515625 546.050781 211.128906 C 547.234375 208.308594 548.851562 205.761719 550.910156 203.496094 C 551.714844 202.683594 552.574219 201.9375 553.488281 201.253906 C 554.40625 200.570312 555.367188 199.957031 556.371094 199.414062 C 557.378906 198.875 558.417969 198.410156 559.492188 198.023438 C 560.570312 197.632812 561.667969 197.328125 562.785156 197.105469 C 563.90625 196.878906 565.039062 196.738281 566.179688 196.679688 C 567.320312 196.625 568.460938 196.652344 569.597656 196.761719 C 570.734375 196.875 571.855469 197.070312 572.964844 197.347656 C 574.074219 197.625 575.15625 197.980469 576.210938 198.421875 C 577.265625 198.859375 578.28125 199.371094 579.261719 199.960938 C 580.242188 200.550781 581.171875 201.207031 582.054688 201.933594 C 582.933594 202.660156 583.757812 203.449219 584.523438 204.296875 C 585.289062 205.144531 585.988281 206.046875 586.617188 206.996094 C 587.25 207.949219 587.808594 208.941406 588.292969 209.976562 C 588.777344 211.011719 589.183594 212.078125 589.507812 213.171875 C 589.835938 214.265625 590.082031 215.378906 590.242188 216.511719 C 590.402344 217.640625 590.480469 218.777344 590.476562 219.921875 C 590.453125 221.4375 590.289062 222.941406 589.984375 224.429688 C 589.683594 225.914062 589.242188 227.363281 588.671875 228.765625 C 588.097656 230.171875 587.398438 231.511719 586.570312 232.785156 C 585.746094 234.058594 584.8125 235.246094 583.765625 236.347656 C 582.660156 237.335938 581.503906 238.261719 580.292969 239.121094 C 578.996094 240 577.609375 240.691406 576.128906 241.203125 C 574.808594 241.875 573.421875 242.335938 571.964844 242.59375 C 570.433594 242.859375 568.890625 243.015625 567.335938 243.054688 Z M 567.335938 243.054688 " fill-opacity="1" fill-rule="nonzero"/><path fill="rgb(10.198975%, 13.328552%, 21.958923%)" d="M 636.75 243.054688 C 635.988281 243.0625 635.230469 243.035156 634.472656 242.964844 C 633.71875 242.898438 632.964844 242.792969 632.21875 242.648438 C 631.472656 242.507812 630.734375 242.328125 630.007812 242.113281 C 629.277344 241.894531 628.5625 241.644531 627.859375 241.359375 C 627.15625 241.070312 626.46875 240.75 625.796875 240.394531 C 625.125 240.039062 624.472656 239.648438 623.839844 239.230469 C 623.207031 238.808594 622.597656 238.359375 622.007812 237.875 C 621.421875 237.394531 620.855469 236.886719 620.320312 236.347656 C 619.78125 235.8125 619.273438 235.25 618.792969 234.660156 C 618.3125 234.074219 617.859375 233.460938 617.4375 232.828125 C 617.019531 232.195312 616.628906 231.542969 616.273438 230.875 C 615.917969 230.203125 615.597656 229.515625 615.308594 228.8125 C 615.023438 228.105469 614.769531 227.390625 614.554688 226.664062 C 614.339844 225.933594 614.160156 225.195312 614.019531 224.449219 C 613.875 223.703125 613.769531 222.953125 613.703125 222.195312 C 613.632812 221.4375 613.605469 220.679688 613.613281 219.921875 C 613.53125 216.84375 614.148438 213.914062 615.464844 211.128906 C 616.644531 208.308594 618.265625 205.761719 620.320312 203.496094 C 620.875 202.984375 621.449219 202.5 622.050781 202.042969 C 622.648438 201.589844 623.265625 201.160156 623.902344 200.761719 C 624.542969 200.363281 625.199219 199.992188 625.871094 199.65625 C 626.542969 199.316406 627.230469 199.011719 627.929688 198.738281 C 628.632812 198.464844 629.34375 198.222656 630.066406 198.015625 C 630.789062 197.808594 631.523438 197.632812 632.261719 197.496094 C 633.003906 197.355469 633.746094 197.25 634.496094 197.179688 C 635.246094 197.109375 635.996094 197.074219 636.75 197.074219 C 637.503906 197.074219 638.253906 197.109375 639.003906 197.179688 C 639.753906 197.25 640.496094 197.355469 641.238281 197.496094 C 641.976562 197.632812 642.707031 197.808594 643.429688 198.015625 C 644.15625 198.222656 644.867188 198.464844 645.570312 198.738281 C 646.269531 199.011719 646.957031 199.316406 647.628906 199.65625 C 648.300781 199.992188 648.957031 200.363281 649.59375 200.761719 C 650.234375 201.160156 650.851562 201.589844 651.449219 202.042969 C 652.046875 202.5 652.625 202.984375 653.175781 203.496094 C 655.234375 205.761719 656.855469 208.308594 658.035156 211.128906 C 659.234375 213.9375 659.851562 216.867188 659.886719 219.921875 C 659.894531 220.679688 659.863281 221.4375 659.796875 222.195312 C 659.730469 222.953125 659.625 223.703125 659.480469 224.449219 C 659.339844 225.195312 659.160156 225.933594 658.945312 226.664062 C 658.726562 227.390625 658.476562 228.105469 658.1875 228.8125 C 657.902344 229.515625 657.578125 230.203125 657.222656 230.875 C 656.867188 231.542969 656.480469 232.195312 656.058594 232.828125 C 655.640625 233.460938 655.1875 234.074219 654.707031 234.660156 C 654.226562 235.25 653.714844 235.8125 653.179688 236.347656 C 652.640625 236.886719 652.078125 237.394531 651.492188 237.875 C 650.902344 238.359375 650.292969 238.808594 649.660156 239.230469 C 649.027344 239.648438 648.375 240.039062 647.703125 240.394531 C 647.03125 240.75 646.34375 241.070312 645.640625 241.359375 C 644.9375 241.644531 644.21875 241.894531 643.492188 242.113281 C 642.761719 242.328125 642.027344 242.507812 641.28125 242.648438 C 640.535156 242.792969 639.78125 242.898438 639.023438 242.964844 C 638.269531 243.035156 637.507812 243.0625 636.75 243.054688 Z M 636.75 243.054688 " fill-opacity="1" fill-rule="nonzero"/></svg>