<?xml version="1.0" encoding="UTF-8"?><svg xmlns="http://www.w3.org/2000/svg" xmlns:xlink="http://www.w3.org/1999/xlink" width="810" zoomAndPan="magnify" viewBox="0 0 810 809.999993" height="809.999993" preserveAspectRatio="xMidYMid meet" version="1.0"><defs><clipPath id="clip-0"><path d="M 70.257812 110.050781 L 728.757812 110.050781 L 728.757812 768 L 70.257812 768 Z M 70.257812 110.050781 " clip-rule="nonzero"/></clipPath></defs><g clip-path="url(#clip-0)"><path fill="rgb(10.198975%, 13.328552%, 21.958923%)" d="M 654.996094 110.050781 C 545.546875 110.050781 398.683594 185.140625 300.0625 314.238281 L 218.304688 314.238281 C 159.230469 314.238281 125.371094 358.332031 102.058594 404.960938 L 70.847656 467.375 L 218.304688 467.375 L 371.445312 620.515625 L 371.445312 767.972656 L 433.859375 736.769531 C 480.492188 713.449219 524.585938 679.59375 524.585938 620.515625 L 524.585938 538.757812 C 653.683594 440.136719 728.773438 293.277344 728.773438 183.828125 L 728.773438 110.050781 Z M 524.585938 263.191406 C 552.777344 263.191406 575.632812 286.042969 575.632812 314.238281 C 575.632812 342.429688 552.777344 365.285156 524.585938 365.285156 C 496.394531 365.285156 473.539062 342.429688 473.539062 314.238281 C 473.539062 286.042969 496.394531 263.191406 524.585938 263.191406 Z M 192.785156 569.46875 L 167.261719 594.992188 C 130.394531 631.859375 116.214844 722.609375 116.214844 722.609375 C 116.214844 722.609375 202.890625 712.5 243.828125 671.5625 L 269.351562 646.039062 Z M 192.785156 569.46875 " fill-opacity="1" fill-rule="nonzero"/></g></svg>